<svg id="Capa_1" enable-background="new 0 0 512 512" height="512" viewBox="0 0 512 512" width="512" xmlns="http://www.w3.org/2000/svg"><g><g><g><path d="m256.6 295h-1.2c-8.284 0-15-6.716-15-15s6.716-15 15-15h1.2c8.284 0 15 6.716 15 15s-6.716 15-15 15z" fill="#FFFFFF"/></g><g><path d="m432 295c-8.284 0-15-6.716-15-15v-170c0-8.271-6.729-15-15-15h-292c-8.271 0-15 6.729-15 15v170c0 8.284-6.716 15-15 15s-15-6.716-15-15v-170c0-24.813 20.187-45 45-45h292c24.813 0 45 20.187 45 45v170c0 8.284-6.716 15-15 15z" fill="#FFFFFF"/></g><g><path d="m467.178 415h-422.178c-24.813 0-45-20.187-45-45v-154c0-12.799 5.053-24.763 14.228-33.689 9.172-8.923 21.286-13.657 34.083-13.292 25.744.706 46.689 22.08 46.689 47.647v104.334h322v-104.334c0-25.567 20.944-46.942 46.689-47.648 12.785-.355 24.912 4.369 34.084 13.294 9.174 8.925 14.227 20.89 14.227 33.688v154c0 24.672-19.959 44.771-44.578 44.998-.081.001-.163.002-.244.002zm-420.175-215.999c-4.461 0-8.655 1.698-11.855 4.813-3.32 3.228-5.148 7.557-5.148 12.186v154c0 8.271 6.729 15 15 15h422c8.271 0 15-6.729 15-15v-154c0-4.629-1.828-8.957-5.147-12.187-3.317-3.228-7.697-4.951-12.341-4.807-9.329.255-17.512 8.508-17.512 17.659v119.335c0 8.284-6.716 15-15 15h-352c-8.284 0-15-6.716-15-15v-119.334c0-9.151-8.183-17.403-17.512-17.659-.162-.004-.324-.006-.485-.006zm417.098-14.989h.01z" fill="#FFFFFF"/></g><g><path d="m256 351h-176c-8.284 0-15-6.716-15-15v-80c0-8.284 6.716-15 15-15h146c24.813 0 45 20.187 45 45v50c0 8.284-6.716 15-15 15zm-161-30h146v-35c0-8.271-6.729-15-15-15h-131z" fill="#FFFFFF"/></g><g><path d="m432 351h-176c-8.284 0-15-6.716-15-15v-50c0-24.813 20.187-45 45-45h146c8.284 0 15 6.716 15 15v80c0 8.284-6.716 15-15 15zm-161-30h146v-50h-131c-8.271 0-15 6.729-15 15z" fill="#FFFFFF"/></g><g><path d="m80 447c-8.284 0-15-6.716-15-15v-32c0-8.284 6.716-15 15-15s15 6.716 15 15v32c0 8.284-6.716 15-15 15z" fill="#FFFFFF"/></g><g><path d="m432 447c-8.284 0-15-6.716-15-15v-32c0-8.284 6.716-15 15-15s15 6.716 15 15v32c0 8.284-6.716 15-15 15z" fill="#FFFFFF"/></g></g></g></svg>